<svg width="775" height="586" viewBox="0 0 775 586" fill="none" xmlns="http://www.w3.org/2000/svg">
<g clip-path="url(#clip0_1_1134)">
<path d="M258.027 327.67C255.856 327.67 253.944 327.552 252.316 327.316C250.664 327.08 249.272 326.796 248.116 326.466V312.489C249.272 312.749 250.499 312.985 251.821 313.221C253.142 313.457 254.534 313.575 256.021 313.575C257.979 313.575 259.726 313.198 261.283 312.466C262.84 311.734 264.067 310.317 264.964 308.263C265.861 306.209 266.309 303.235 266.309 299.363V225.112H283.11V299.268C283.11 306.068 282.048 311.545 279.948 315.724C277.824 319.902 274.898 322.924 271.123 324.837C267.347 326.725 262.982 327.693 258.05 327.693L258.027 327.67Z" fill="#106EE8"/>
<path d="M340.779 304.344H295.167V225.112H340.779V238.876H311.968V256.276H338.774V270.04H311.968V290.462H340.779V304.344Z" fill="#106EE8"/>
<path d="M372.516 225.112C379.713 225.112 385.636 225.986 390.308 227.709C394.98 229.433 398.472 232.053 400.738 235.571C403.003 239.065 404.159 243.504 404.159 248.839C404.159 252.451 403.475 255.615 402.106 258.33C400.738 261.045 398.921 263.335 396.679 265.224C394.437 267.113 392.03 268.647 389.411 269.828L412.701 304.344H394.06L375.159 273.936H366.216V304.344H349.415V225.112H372.493H372.516ZM371.313 238.876H366.216V260.29H371.643C377.212 260.29 381.176 259.369 383.583 257.504C385.99 255.639 387.193 252.9 387.193 249.288C387.193 245.676 385.895 242.866 383.323 241.261C380.751 239.679 376.74 238.876 371.313 238.876Z" fill="#106EE8"/>
<path d="M486.676 264.634C486.676 270.748 485.921 276.297 484.41 281.302C482.9 286.307 480.588 290.627 477.497 294.239C474.406 297.852 470.488 300.637 465.769 302.55C461.026 304.486 455.434 305.454 448.969 305.454C442.503 305.454 436.911 304.486 432.168 302.55C427.425 300.614 423.532 297.852 420.441 294.239C417.349 290.627 415.061 286.307 413.527 281.278C412.017 276.249 411.262 270.678 411.262 264.539C411.262 256.347 412.607 249.193 415.297 243.102C417.987 237.011 422.139 232.289 427.732 228.937C433.324 225.584 440.45 223.908 449.087 223.908C457.723 223.908 464.755 225.584 470.3 228.937C475.845 232.289 479.951 237.035 482.641 243.149C485.331 249.264 486.676 256.418 486.676 264.657V264.634ZM428.864 264.634C428.864 270.158 429.549 274.927 430.941 278.917C432.333 282.907 434.504 285.976 437.477 288.125C440.427 290.273 444.273 291.359 448.969 291.359C453.664 291.359 457.605 290.273 460.554 288.125C463.504 285.976 465.675 282.907 467.02 278.917C468.365 274.927 469.049 270.158 469.049 264.634C469.049 256.323 467.492 249.784 464.401 245.015C461.286 240.246 456.189 237.861 449.063 237.861C444.32 237.861 440.474 238.947 437.501 241.095C434.528 243.244 432.333 246.313 430.941 250.303C429.549 254.293 428.864 259.086 428.864 264.634Z" fill="#106EE8"/>
<path d="M565.488 304.344H544.133L509.682 244.401H509.187C509.328 246.903 509.446 249.406 509.564 251.932C509.682 254.458 509.777 256.984 509.894 259.487C510.012 261.989 510.107 264.516 510.225 267.042V304.32H495.218V225.089H516.407L550.811 284.442H551.188C551.117 281.986 551.023 279.555 550.929 277.123C550.834 274.691 550.716 272.283 550.622 269.851C550.528 267.42 550.457 265.011 550.386 262.58V225.065H565.511V304.297L565.488 304.344Z" fill="#106EE8"/>
<path d="M577.545 304.344V225.112H594.346V304.344H577.545Z" fill="#106EE8"/>
<path d="M639.934 304.344L620.868 242.182H620.373C620.444 243.669 620.562 245.888 620.727 248.863C620.892 251.838 621.033 255.025 621.199 258.377C621.364 261.73 621.411 264.775 621.411 267.49V304.344H606.404V225.112H629.269L648.004 285.717H648.335L668.226 225.112H691.091V304.344H675.447V266.829C675.447 264.327 675.494 261.47 675.588 258.212C675.683 254.954 675.801 251.861 675.942 248.91C676.084 245.959 676.202 243.763 676.273 242.276H675.777L655.343 304.344H639.958H639.934Z" fill="#106EE8"/>
<path d="M775 264.634C775 270.748 774.245 276.297 772.735 281.302C771.225 286.307 768.912 290.627 765.821 294.239C762.73 297.852 758.813 300.637 754.094 302.55C749.351 304.486 743.758 305.454 737.293 305.454C730.828 305.454 725.235 304.486 720.492 302.55C715.749 300.614 711.856 297.852 708.765 294.239C705.674 290.627 703.385 286.307 701.851 281.278C700.341 276.249 699.586 270.678 699.586 264.539C699.586 256.347 700.931 249.193 703.621 243.102C706.311 237.011 710.464 232.289 716.056 228.937C721.649 225.584 728.775 223.908 737.411 223.908C746.047 223.908 753.079 225.584 758.624 228.937C764.169 232.289 768.275 237.035 770.965 243.149C773.655 249.264 775 256.418 775 264.657V264.634ZM717.189 264.634C717.189 270.158 717.873 274.927 719.265 278.917C720.658 282.907 722.828 285.976 725.801 288.125C728.751 290.273 732.597 291.359 737.293 291.359C741.989 291.359 745.929 290.273 748.879 288.125C751.828 285.976 753.999 282.907 755.344 278.917C756.689 274.927 757.373 270.158 757.373 264.634C757.373 256.323 755.816 249.784 752.725 245.015C749.61 240.246 744.513 237.861 737.387 237.861C732.644 237.861 728.798 238.947 725.825 241.095C722.852 243.244 720.658 246.313 719.265 250.303C717.873 254.293 717.189 259.086 717.189 264.634Z" fill="#106EE8"/>
<path d="M268.739 363.39H281.505V380.837C279.641 381.475 277.73 381.947 275.771 382.254C273.813 382.561 271.595 382.75 269.14 382.75C265.507 382.75 262.416 382.018 259.914 380.578C257.413 379.137 255.525 377.036 254.204 374.321C252.883 371.606 252.245 368.348 252.245 364.547C252.245 360.746 252.953 357.677 254.393 354.962C255.832 352.247 257.909 350.122 260.669 348.611C263.43 347.1 266.71 346.368 270.58 346.368C272.515 346.368 274.379 346.557 276.149 346.935C277.918 347.313 279.57 347.832 281.08 348.493L279.287 352.672C278.036 352.105 276.644 351.633 275.11 351.232C273.577 350.83 272.019 350.641 270.391 350.641C267.678 350.641 265.365 351.208 263.407 352.365C261.472 353.522 259.962 355.127 258.923 357.205C257.885 359.282 257.366 361.761 257.366 364.618C257.366 367.475 257.791 369.836 258.664 371.937C259.537 374.038 260.905 375.643 262.746 376.8C264.586 377.957 266.993 378.547 269.919 378.547C271.382 378.547 272.633 378.476 273.671 378.311C274.709 378.146 275.677 377.957 276.55 377.721V367.758H268.692V363.414L268.739 363.39Z" fill="#106EE8"/>
<path d="M311.354 382.254L307.437 371.724H293.563L289.693 382.254H284.549L298.046 346.722H303.119L316.546 382.254H311.354ZM306.045 367.404L302.317 356.969C302.199 356.615 302.034 356.072 301.798 355.363C301.562 354.655 301.326 353.923 301.09 353.168C300.854 352.412 300.665 351.775 300.524 351.279C300.359 351.94 300.17 352.648 299.957 353.38C299.745 354.112 299.533 354.797 299.344 355.434C299.132 356.072 298.966 356.591 298.848 356.969L295.073 367.404H306.045Z" fill="#106EE8"/>
<path d="M340.803 372.74C340.803 374.841 340.284 376.635 339.245 378.122C338.207 379.61 336.744 380.767 334.856 381.546C332.969 382.325 330.727 382.726 328.131 382.726C326.834 382.726 325.583 382.655 324.403 382.514C323.223 382.372 322.114 382.183 321.1 381.923C320.085 381.664 319.165 381.333 318.339 380.955V376.257C319.684 376.8 321.218 377.32 322.987 377.792C324.757 378.264 326.551 378.5 328.438 378.5C330.066 378.5 331.435 378.288 332.544 377.839C333.653 377.39 334.479 376.777 335.045 375.974C335.612 375.171 335.895 374.203 335.895 373.07C335.895 371.937 335.612 370.992 335.069 370.237C334.526 369.481 333.653 368.773 332.473 368.112C331.293 367.475 329.736 366.79 327.825 366.058C326.48 365.562 325.276 365.019 324.167 364.406C323.082 363.792 322.114 363.06 321.312 362.257C320.51 361.454 319.896 360.51 319.472 359.4C319.047 358.314 318.811 357.063 318.811 355.647C318.811 353.687 319.283 352.034 320.25 350.641C321.218 349.249 322.563 348.186 324.285 347.454C326.008 346.722 328.014 346.345 330.279 346.345C332.143 346.345 333.889 346.533 335.517 346.911C337.145 347.289 338.679 347.785 340.142 348.446L338.561 352.554C337.192 351.987 335.8 351.539 334.432 351.184C333.063 350.83 331.6 350.641 330.114 350.641C328.745 350.641 327.589 350.854 326.645 351.255C325.701 351.657 324.993 352.223 324.498 352.979C324.002 353.734 323.766 354.608 323.766 355.623C323.766 356.78 324.026 357.724 324.545 358.48C325.064 359.235 325.866 359.92 326.999 360.534C328.131 361.147 329.571 361.809 331.364 362.493C333.37 363.272 335.092 364.099 336.508 364.972C337.924 365.846 338.986 366.884 339.741 368.112C340.496 369.34 340.85 370.898 340.85 372.763L340.803 372.74Z" fill="#106EE8"/>
<path d="M368.93 346.864C373.484 346.864 376.834 347.785 378.934 349.603C381.035 351.421 382.096 354.018 382.096 357.37C382.096 358.881 381.86 360.321 381.365 361.69C380.869 363.06 380.091 364.264 379.005 365.303C377.92 366.341 376.48 367.168 374.711 367.782C372.941 368.395 370.77 368.679 368.175 368.679H364.14V382.254H359.184V346.864H368.93ZM368.552 351.019H364.14V364.476H367.655C369.708 364.476 371.431 364.24 372.799 363.792C374.192 363.32 375.23 362.588 375.938 361.572C376.646 360.557 377 359.212 377 357.559C377 355.363 376.315 353.734 374.947 352.648C373.578 351.562 371.431 351.019 368.528 351.019H368.552Z" fill="#106EE8"/>
<path d="M398.331 346.864C401.304 346.864 403.782 347.242 405.716 347.974C407.651 348.706 409.114 349.815 410.058 351.326C411.002 352.837 411.474 354.702 411.474 356.992C411.474 358.81 411.144 360.321 410.483 361.572C409.822 362.824 408.949 363.839 407.887 364.618C406.826 365.397 405.669 366.035 404.442 366.483L414.329 382.278H408.642L400.03 367.805H393.517V382.278H388.562V346.888H398.307L398.331 346.864ZM398.024 351.066H393.541V363.626H398.354C401.139 363.626 403.192 363.083 404.466 361.997C405.764 360.911 406.401 359.306 406.401 357.158C406.401 355.009 405.716 353.38 404.348 352.459C402.979 351.539 400.856 351.066 398 351.066H398.024Z" fill="#106EE8"/>
<path d="M450.007 364.524C450.007 367.262 449.653 369.741 448.969 371.96C448.284 374.203 447.246 376.116 445.877 377.721C444.509 379.326 442.81 380.578 440.781 381.428C438.728 382.301 436.345 382.726 433.631 382.726C430.917 382.726 428.44 382.301 426.387 381.428C424.334 380.554 422.635 379.303 421.266 377.697C419.898 376.092 418.907 374.156 418.222 371.913C417.562 369.67 417.208 367.191 417.208 364.453C417.208 360.817 417.798 357.653 419.001 354.915C420.205 352.176 422.022 350.075 424.452 348.564C426.906 347.053 429.973 346.297 433.678 346.297C437.383 346.297 440.262 347.053 442.668 348.54C445.075 350.028 446.916 352.152 448.143 354.867C449.37 357.582 449.983 360.793 449.983 364.5L450.007 364.524ZM422.423 364.524C422.423 367.404 422.824 369.883 423.626 371.96C424.428 374.062 425.655 375.667 427.307 376.8C428.959 377.934 431.059 378.5 433.631 378.5C436.203 378.5 438.35 377.934 440.002 376.8C441.654 375.667 442.857 374.038 443.636 371.96C444.414 369.883 444.792 367.38 444.792 364.524C444.792 360.156 443.895 356.756 442.126 354.301C440.356 351.846 437.548 350.618 433.702 350.618C431.13 350.618 429.006 351.184 427.331 352.294C425.655 353.404 424.428 355.009 423.626 357.087C422.824 359.164 422.423 361.643 422.423 364.524Z" fill="#106EE8"/>
<path d="M485.378 364.217C485.378 368.207 484.646 371.535 483.183 374.203C481.72 376.871 479.597 378.878 476.812 380.224C474.028 381.569 470.654 382.254 466.689 382.254H456.991V346.864H467.775C471.385 346.864 474.5 347.525 477.143 348.847C479.785 350.169 481.815 352.105 483.231 354.679C484.67 357.252 485.378 360.439 485.378 364.24V364.217ZM480.187 364.358C480.187 361.313 479.691 358.834 478.7 356.851C477.709 354.867 476.27 353.427 474.358 352.459C472.447 351.491 470.135 351.019 467.374 351.019H461.923V378.028H466.501C471.055 378.028 474.476 376.871 476.765 374.581C479.054 372.291 480.187 368.868 480.187 364.335V364.358Z" fill="#106EE8"/>
<path d="M519.64 346.864V369.765C519.64 372.244 519.121 374.463 518.106 376.423C517.091 378.382 515.534 379.917 513.481 381.05C511.428 382.183 508.809 382.75 505.694 382.75C501.258 382.75 497.884 381.569 495.548 379.185C493.212 376.8 492.056 373.637 492.056 369.694V346.888H497.035V369.505C497.035 372.48 497.79 374.746 499.276 376.257C500.763 377.768 502.981 378.524 505.954 378.524C507.983 378.524 509.659 378.146 510.933 377.414C512.207 376.682 513.174 375.643 513.788 374.298C514.401 372.952 514.732 371.347 514.732 369.481V346.864H519.663H519.64Z" fill="#106EE8"/>
<path d="M543.189 350.641C541.372 350.641 539.744 350.972 538.281 351.609C536.842 352.247 535.615 353.168 534.623 354.395C533.632 355.623 532.854 357.087 532.335 358.787C531.816 360.486 531.532 362.422 531.532 364.571C531.532 367.427 531.957 369.906 532.807 371.984C533.656 374.062 534.93 375.667 536.653 376.8C538.375 377.933 540.523 378.5 543.118 378.5C544.676 378.5 546.139 378.358 547.554 378.075C548.97 377.792 550.362 377.438 551.778 376.965V381.215C550.433 381.734 549.017 382.112 547.578 382.372C546.139 382.632 544.44 382.75 542.505 382.75C538.894 382.75 535.898 381.994 533.491 380.507C531.108 378.996 529.314 376.895 528.134 374.18C526.955 371.465 526.365 368.254 526.365 364.547C526.365 361.879 526.742 359.424 527.474 357.205C528.205 354.985 529.314 353.073 530.73 351.444C532.169 349.815 533.916 348.564 536.016 347.69C538.092 346.817 540.523 346.368 543.236 346.368C545.006 346.368 546.728 346.557 548.427 346.935C550.103 347.313 551.66 347.832 553.076 348.517L551.235 352.648C550.056 352.105 548.805 351.657 547.46 351.255C546.115 350.854 544.699 350.641 543.189 350.641Z" fill="#106EE8"/>
<path d="M570.23 382.254H565.252V351.137H554.515V346.864H580.967V351.137H570.254V382.254H570.23Z" fill="#106EE8"/>
<path d="M605.767 372.74C605.767 374.841 605.248 376.635 604.209 378.122C603.171 379.61 601.708 380.767 599.82 381.546C597.933 382.325 595.691 382.726 593.095 382.726C591.798 382.726 590.547 382.655 589.367 382.514C588.187 382.372 587.078 382.183 586.064 381.923C585.049 381.664 584.129 381.333 583.303 380.955V376.257C584.648 376.8 586.182 377.32 587.951 377.792C589.721 378.264 591.514 378.5 593.402 378.5C595.03 378.5 596.399 378.288 597.508 377.839C598.617 377.39 599.443 376.777 600.009 375.974C600.575 375.171 600.859 374.203 600.859 373.07C600.859 371.937 600.575 370.992 600.033 370.237C599.49 369.481 598.617 368.773 597.437 368.112C596.257 367.475 594.7 366.79 592.789 366.058C591.444 365.562 590.24 365.019 589.131 364.406C588.046 363.792 587.078 363.06 586.276 362.257C585.474 361.454 584.86 360.51 584.435 359.4C584.011 358.314 583.775 357.063 583.775 355.647C583.775 353.687 584.247 352.034 585.214 350.641C586.182 349.249 587.527 348.186 589.249 347.454C590.972 346.722 592.977 346.345 595.243 346.345C597.107 346.345 598.853 346.533 600.481 346.911C602.109 347.289 603.643 347.785 605.106 348.446L603.525 352.554C602.156 351.987 600.764 351.539 599.396 351.184C598.027 350.83 596.564 350.641 595.077 350.641C593.709 350.641 592.553 350.854 591.609 351.255C590.665 351.657 589.957 352.223 589.462 352.979C588.966 353.734 588.73 354.608 588.73 355.623C588.73 356.78 588.99 357.724 589.509 358.48C590.028 359.235 590.83 359.92 591.963 360.534C593.095 361.147 594.535 361.809 596.328 362.493C598.334 363.272 600.056 364.099 601.472 364.972C602.888 365.846 603.95 366.884 604.705 368.112C605.46 369.34 605.814 370.898 605.814 372.763L605.767 372.74Z" fill="#106EE8"/>
<path d="M82.4222 110.915L37.7542 202.967C35.7486 207.075 37.7542 212.033 42.0724 213.591L109.44 237.908C115.056 239.939 120.766 235.052 119.61 229.173L96.9104 112.804C95.4946 105.532 85.6549 104.257 82.4222 110.915Z" fill="#106EE8"/>
<path d="M99.6948 300.449L137.331 306.799C146.392 308.334 154.155 300.331 152.386 291.312L98.3498 15.9597C97.0048 9.08946 101.276 2.36088 108.095 0.684636L109.299 0.377719C116.307 -1.34574 123.409 2.90389 125.179 9.91577L211.259 350.736C213.878 361.147 203.59 370.142 193.632 366.153L92.6394 325.592C88.7932 324.058 85.8909 320.776 84.829 316.762C82.3986 307.531 90.3034 298.867 99.6948 300.449Z" fill="#106EE8"/>
<path d="M129.237 475.085L173.905 383.033C175.911 378.925 173.905 373.967 169.587 372.409L102.22 348.092C96.6036 346.061 90.8933 350.948 92.0495 356.827L114.749 473.196C116.165 480.468 126.005 481.743 129.237 475.085Z" fill="#106EE8"/>
<path d="M111.965 285.551L74.3286 279.2C65.2676 277.666 57.5044 285.669 59.2741 294.688L113.333 570.017C114.678 576.887 110.408 583.615 103.588 585.292L102.385 585.599C95.3766 587.322 88.2741 583.072 86.5044 576.061L0.424738 235.264C-2.19446 224.852 8.09357 215.857 18.0512 219.847L119.044 260.408C122.89 261.942 125.792 265.224 126.854 269.237C129.285 278.469 121.38 287.133 111.988 285.551H111.965Z" fill="#106EE8"/>
</g>
<defs>
<clipPath id="clip0_1_1134">
<rect width="775" height="586" fill="white"/>
</clipPath>
</defs>
</svg>
